<?xml version="1.0" encoding="UTF-8" standalone="no"?>
<!DOCTYPE svg PUBLIC "-//W3C//DTD SVG 1.1//EN"
 "http://www.w3.org/Graphics/SVG/1.1/DTD/svg11.dtd">
<!-- Generated by graphviz version 2.43.0 (0)
 -->
<!-- Title: G Pages: 1 -->
<svg width="786pt" height="915pt"
 viewBox="0.00 0.00 785.75 914.50" xmlns="http://www.w3.org/2000/svg" xmlns:xlink="http://www.w3.org/1999/xlink">
<g id="graph0" class="graph" transform="scale(1 1) rotate(0) translate(4 910.5)">
<title>G</title>
<polygon fill="white" stroke="transparent" points="-4,4 -4,-910.5 781.75,-910.5 781.75,4 -4,4"/>
<!-- start -->
<g id="node1" class="node">
<title>start</title>
<ellipse fill="none" stroke="black" cx="94.75" cy="-854.18" rx="94.51" ry="52.15"/>
<text text-anchor="middle" x="94.75" y="-871.18" font-family="David" font-size="20.00" fill="blue">article ה</text>
<text text-anchor="middle" x="94.75" y="-849.18" font-family="David" font-size="20.00" fill="blue">before gutteral?</text>
<text text-anchor="middle" x="94.75" y="-827.18" font-family="David" font-size="20.00" fill="blue">(ר,ע,א,ח,ה)</text>
</g>
<!-- hay_patah_shuruk -->
<g id="node5" class="node">
<title>hay_patah_shuruk</title>
<ellipse fill="none" stroke="black" cx="78.75" cy="-724.85" rx="27" ry="21.43"/>
<text text-anchor="middle" x="78.75" y="-719.85" font-family="David" font-size="20.00"> ּהַ</text>
</g>
<!-- start&#45;&gt;hay_patah_shuruk -->
<g id="edge2" class="edge">
<title>start&#45;&gt;hay_patah_shuruk</title>
<path fill="none" stroke="black" d="M88.29,-801.76C86.36,-786.4 84.31,-770.05 82.6,-756.48"/>
<polygon fill="black" stroke="black" points="86.04,-755.75 81.32,-746.26 79.09,-756.62 86.04,-755.75"/>
<text text-anchor="middle" x="91.75" y="-775.85" font-family="David" font-size="10.00" fill="red">no</text>
</g>
<!-- alef_or_resh -->
<g id="node6" class="node">
<title>alef_or_resh</title>
<polygon fill="none" stroke="black" points="227.75,-754.85 123.75,-724.85 227.75,-694.85 331.75,-724.85 227.75,-754.85"/>
<text text-anchor="middle" x="227.75" y="-719.85" font-family="David" font-size="20.00" fill="blue">before ר,א?</text>
</g>
<!-- start&#45;&gt;alef_or_resh -->
<g id="edge1" class="edge">
<title>start&#45;&gt;alef_or_resh</title>
<path fill="none" stroke="black" d="M141.64,-808.29C160.06,-790.66 180.69,-770.91 197.13,-755.17"/>
<polygon fill="black" stroke="black" points="199.57,-757.68 204.37,-748.24 194.73,-752.63 199.57,-757.68"/>
<text text-anchor="middle" x="183.25" y="-775.85" font-family="David" font-size="10.00" fill="green">yes</text>
</g>
<!-- hay_kamatz -->
<g id="node2" class="node">
<title>hay_kamatz</title>
<ellipse fill="none" stroke="black" cx="127.75" cy="-377.43" rx="27" ry="21.43"/>
<text text-anchor="middle" x="127.75" y="-372.43" font-family="David" font-size="20.00">הָ</text>
</g>
<!-- hay_seggol -->
<g id="node3" class="node">
<title>hay_seggol</title>
<ellipse fill="none" stroke="black" cx="614.75" cy="-21.21" rx="27" ry="21.43"/>
<text text-anchor="middle" x="614.75" y="-16.21" font-family="David" font-size="20.00">הֶ</text>
</g>
<!-- hay_patah -->
<g id="node4" class="node">
<title>hay_patah</title>
<ellipse fill="none" stroke="black" cx="478.75" cy="-141.43" rx="27" ry="21.43"/>
<text text-anchor="middle" x="478.75" y="-136.43" font-family="David" font-size="20.00">הַ</text>
</g>
<!-- hay_kamatz_ar -->
<g id="node7" class="node">
<title>hay_kamatz_ar</title>
<ellipse fill="none" stroke="black" cx="192.75" cy="-626.64" rx="27" ry="21.43"/>
<text text-anchor="middle" x="192.75" y="-621.64" font-family="David" font-size="20.00">הָ</text>
</g>
<!-- alef_or_resh&#45;&gt;hay_kamatz_ar -->
<g id="edge3" class="edge">
<title>alef_or_resh&#45;&gt;hay_kamatz_ar</title>
<path fill="none" stroke="black" d="M218.19,-697.56C213.58,-684.88 208.03,-669.64 203.29,-656.62"/>
<polygon fill="black" stroke="black" points="206.57,-655.38 199.86,-647.18 199.99,-657.78 206.57,-655.38"/>
<text text-anchor="middle" x="216.25" y="-668.85" font-family="David" font-size="10.00" fill="green">yes</text>
</g>
<!-- ayen -->
<g id="node8" class="node">
<title>ayen</title>
<ellipse fill="none" stroke="black" cx="299.75" cy="-626.64" rx="61.54" ry="21.43"/>
<text text-anchor="middle" x="299.75" y="-621.64" font-family="David" font-size="20.00" fill="blue">before ע?</text>
</g>
<!-- alef_or_resh&#45;&gt;ayen -->
<g id="edge4" class="edge">
<title>alef_or_resh&#45;&gt;ayen</title>
<path fill="none" stroke="black" d="M245.92,-699.57C255.93,-686.2 268.39,-669.55 278.8,-655.64"/>
<polygon fill="black" stroke="black" points="281.79,-657.48 284.98,-647.38 276.19,-653.29 281.79,-657.48"/>
<text text-anchor="middle" x="275.75" y="-668.85" font-family="David" font-size="10.00" fill="red">no</text>
</g>
<!-- unaccented_ayen -->
<g id="node9" class="node">
<title>unaccented_ayen</title>
<polygon fill="none" stroke="black" points="159.75,-558.43 34.75,-506.43 159.75,-454.43 284.75,-506.43 159.75,-558.43"/>
<text text-anchor="middle" x="159.75" y="-512.43" font-family="David" font-size="20.00" fill="blue">before</text>
<text text-anchor="middle" x="159.75" y="-490.43" font-family="David" font-size="20.00" fill="blue">unaccented עָ?</text>
</g>
<!-- ayen&#45;&gt;unaccented_ayen -->
<g id="edge5" class="edge">
<title>ayen&#45;&gt;unaccented_ayen</title>
<path fill="none" stroke="black" d="M277.26,-606.65C258.65,-590.93 231.55,-568.05 208.07,-548.23"/>
<polygon fill="black" stroke="black" points="210.16,-545.41 200.26,-541.63 205.65,-550.76 210.16,-545.41"/>
<text text-anchor="middle" x="260.25" y="-579.43" font-family="David" font-size="10.00" fill="green">yes</text>
</g>
<!-- het -->
<g id="node11" class="node">
<title>het</title>
<polygon fill="none" stroke="black" points="391.75,-536.43 302.75,-506.43 391.75,-476.43 480.75,-506.43 391.75,-536.43"/>
<text text-anchor="middle" x="391.75" y="-501.43" font-family="David" font-size="20.00" fill="blue">before ח?</text>
</g>
<!-- ayen&#45;&gt;het -->
<g id="edge8" class="edge">
<title>ayen&#45;&gt;het</title>
<path fill="none" stroke="black" d="M315.15,-605.85C329.42,-587.52 350.88,-559.94 367.46,-538.64"/>
<polygon fill="black" stroke="black" points="370.4,-540.57 373.78,-530.52 364.87,-536.27 370.4,-540.57"/>
<text text-anchor="middle" x="342.75" y="-579.43" font-family="David" font-size="10.00" fill="red">no</text>
</g>
<!-- unaccented_ayen&#45;&gt;hay_kamatz -->
<g id="edge7" class="edge">
<title>unaccented_ayen&#45;&gt;hay_kamatz</title>
<path fill="none" stroke="black" d="M148.11,-459.22C143.84,-442.28 139.12,-423.56 135.31,-408.41"/>
<polygon fill="black" stroke="black" points="138.66,-407.39 132.82,-398.55 131.87,-409.11 138.66,-407.39"/>
<text text-anchor="middle" x="147.75" y="-428.43" font-family="David" font-size="10.00" fill="red">no</text>
</g>
<!-- hay_seggol_ua -->
<g id="node10" class="node">
<title>hay_seggol_ua</title>
<ellipse fill="none" stroke="black" cx="199.75" cy="-377.43" rx="27" ry="21.43"/>
<text text-anchor="middle" x="199.75" y="-372.43" font-family="David" font-size="20.00">הֶ</text>
</g>
<!-- unaccented_ayen&#45;&gt;hay_seggol_ua -->
<g id="edge6" class="edge">
<title>unaccented_ayen&#45;&gt;hay_seggol_ua</title>
<path fill="none" stroke="black" d="M173.97,-460.29C179.46,-442.86 185.58,-423.42 190.48,-407.85"/>
<polygon fill="black" stroke="black" points="193.85,-408.83 193.51,-398.24 187.17,-406.73 193.85,-408.83"/>
<text text-anchor="middle" x="190.25" y="-428.43" font-family="David" font-size="10.00" fill="green">yes</text>
</g>
<!-- het_kamatz -->
<g id="node12" class="node">
<title>het_kamatz</title>
<polygon fill="none" stroke="black" points="349.75,-407.43 260.75,-377.43 349.75,-347.43 438.75,-377.43 349.75,-407.43"/>
<text text-anchor="middle" x="349.75" y="-372.43" font-family="David" font-size="20.00" fill="blue">before חָ?</text>
</g>
<!-- het&#45;&gt;het_kamatz -->
<g id="edge9" class="edge">
<title>het&#45;&gt;het_kamatz</title>
<path fill="none" stroke="black" d="M383.05,-479.11C376.86,-460.38 368.46,-434.98 361.64,-414.38"/>
<polygon fill="black" stroke="black" points="364.91,-413.1 358.44,-404.71 358.26,-415.3 364.91,-413.1"/>
<text text-anchor="middle" x="374.25" y="-428.43" font-family="David" font-size="10.00" fill="green">yes</text>
</g>
<!-- hay -->
<g id="node15" class="node">
<title>hay</title>
<polygon fill="none" stroke="black" points="545.75,-407.43 456.75,-377.43 545.75,-347.43 634.75,-377.43 545.75,-407.43"/>
<text text-anchor="middle" x="545.75" y="-372.43" font-family="David" font-size="20.00" fill="blue">before ה?</text>
</g>
<!-- het&#45;&gt;hay -->
<g id="edge12" class="edge">
<title>het&#45;&gt;hay</title>
<path fill="none" stroke="black" d="M416.84,-484.74C443.01,-463.15 484.17,-429.21 512.92,-405.5"/>
<polygon fill="black" stroke="black" points="515.19,-408.17 520.68,-399.1 510.74,-402.77 515.19,-408.17"/>
<text text-anchor="middle" x="492.75" y="-428.43" font-family="David" font-size="10.00" fill="red">no</text>
</g>
<!-- hay_seggol_hk -->
<g id="node13" class="node">
<title>hay_seggol_hk</title>
<ellipse fill="none" stroke="black" cx="292.75" cy="-270.43" rx="27" ry="21.43"/>
<text text-anchor="middle" x="292.75" y="-265.43" font-family="David" font-size="20.00">הֶ</text>
</g>
<!-- het_kamatz&#45;&gt;hay_seggol_hk -->
<g id="edge10" class="edge">
<title>het_kamatz&#45;&gt;hay_seggol_hk</title>
<path fill="none" stroke="black" d="M336.39,-351.81C327.86,-336.1 316.79,-315.7 307.93,-299.38"/>
<polygon fill="black" stroke="black" points="310.85,-297.43 303.01,-290.31 304.7,-300.77 310.85,-297.43"/>
<text text-anchor="middle" x="329.25" y="-321.43" font-family="David" font-size="10.00" fill="green">yes</text>
</g>
<!-- hay_patah_hk -->
<g id="node14" class="node">
<title>hay_patah_hk</title>
<ellipse fill="none" stroke="black" cx="364.75" cy="-270.43" rx="27" ry="21.43"/>
<text text-anchor="middle" x="364.75" y="-265.43" font-family="David" font-size="20.00">הַ</text>
</g>
<!-- het_kamatz&#45;&gt;hay_patah_hk -->
<g id="edge11" class="edge">
<title>het_kamatz&#45;&gt;hay_patah_hk</title>
<path fill="none" stroke="black" d="M353.73,-348.56C355.79,-334.19 358.29,-316.63 360.4,-301.9"/>
<polygon fill="black" stroke="black" points="363.9,-302.15 361.85,-291.76 356.97,-301.16 363.9,-302.15"/>
<text text-anchor="middle" x="362.75" y="-321.43" font-family="David" font-size="10.00" fill="red">no</text>
</g>
<!-- hay_kamatz_q -->
<g id="node16" class="node">
<title>hay_kamatz_q</title>
<polygon fill="none" stroke="black" points="529.75,-300.43 440.75,-270.43 529.75,-240.43 618.75,-270.43 529.75,-300.43"/>
<text text-anchor="middle" x="529.75" y="-265.43" font-family="David" font-size="20.00" fill="blue">before הָ?</text>
</g>
<!-- hay&#45;&gt;hay_kamatz_q -->
<g id="edge13" class="edge">
<title>hay&#45;&gt;hay_kamatz_q</title>
<path fill="none" stroke="black" d="M541.55,-348.84C539.71,-336.76 537.52,-322.38 535.53,-309.32"/>
<polygon fill="black" stroke="black" points="538.95,-308.55 533.98,-299.19 532.03,-309.61 538.95,-308.55"/>
<text text-anchor="middle" x="544.25" y="-321.43" font-family="David" font-size="10.00" fill="green">yes</text>
</g>
<!-- hay_patah_shuruk_hay -->
<g id="node17" class="node">
<title>hay_patah_shuruk_hay</title>
<ellipse fill="none" stroke="black" cx="663.75" cy="-270.43" rx="27" ry="21.43"/>
<text text-anchor="middle" x="663.75" y="-265.43" font-family="David" font-size="20.00"> ּהַ</text>
</g>
<!-- hay&#45;&gt;hay_patah_shuruk_hay -->
<g id="edge14" class="edge">
<title>hay&#45;&gt;hay_patah_shuruk_hay</title>
<path fill="none" stroke="black" d="M569.63,-355.18C589.73,-337.3 618.37,-311.81 638.77,-293.66"/>
<polygon fill="black" stroke="black" points="641.27,-296.11 646.42,-286.85 636.62,-290.89 641.27,-296.11"/>
<text text-anchor="middle" x="613.75" y="-321.43" font-family="David" font-size="10.00" fill="red">no</text>
</g>
<!-- hay_kamatz_q&#45;&gt;hay_patah -->
<g id="edge16" class="edge">
<title>hay_kamatz_q&#45;&gt;hay_patah</title>
<path fill="none" stroke="black" d="M519.43,-243.73C511,-222.73 499.09,-193.07 490.34,-171.27"/>
<polygon fill="black" stroke="black" points="493.53,-169.84 486.56,-161.87 487.04,-172.45 493.53,-169.84"/>
<text text-anchor="middle" x="515.75" y="-214.43" font-family="David" font-size="10.00" fill="red">no</text>
</g>
<!-- unaccented_hay -->
<g id="node18" class="node">
<title>unaccented_hay</title>
<polygon fill="none" stroke="black" points="650.75,-193.43 523.75,-141.43 650.75,-89.43 777.75,-141.43 650.75,-193.43"/>
<text text-anchor="middle" x="650.75" y="-147.43" font-family="David" font-size="20.00" fill="blue">before</text>
<text text-anchor="middle" x="650.75" y="-125.43" font-family="David" font-size="20.00" fill="blue">unaccented הָ?</text>
</g>
<!-- hay_kamatz_q&#45;&gt;unaccented_hay -->
<g id="edge15" class="edge">
<title>hay_kamatz_q&#45;&gt;unaccented_hay</title>
<path fill="none" stroke="black" d="M550.83,-247.3C566.75,-230.6 589.12,-207.11 608.66,-186.61"/>
<polygon fill="black" stroke="black" points="611.35,-188.86 615.71,-179.2 606.28,-184.03 611.35,-188.86"/>
<text text-anchor="middle" x="589.25" y="-214.43" font-family="David" font-size="10.00" fill="green">yes</text>
</g>
<!-- unaccented_hay&#45;&gt;hay_seggol -->
<g id="edge17" class="edge">
<title>unaccented_hay&#45;&gt;hay_seggol</title>
<path fill="none" stroke="black" d="M636.94,-95.06C632.52,-80.57 627.76,-64.92 623.78,-51.85"/>
<polygon fill="black" stroke="black" points="627.04,-50.54 620.78,-41.99 620.34,-52.58 627.04,-50.54"/>
<text text-anchor="middle" x="635.25" y="-63.43" font-family="David" font-size="10.00" fill="green">yes</text>
</g>
<!-- hay_kamatz_uh -->
<g id="node19" class="node">
<title>hay_kamatz_uh</title>
<ellipse fill="none" stroke="black" cx="686.75" cy="-21.21" rx="27" ry="21.43"/>
<text text-anchor="middle" x="686.75" y="-16.21" font-family="David" font-size="20.00">הָ</text>
</g>
<!-- unaccented_hay&#45;&gt;hay_kamatz_uh -->
<g id="edge18" class="edge">
<title>unaccented_hay&#45;&gt;hay_kamatz_uh</title>
<path fill="none" stroke="black" d="M664.57,-95.06C668.98,-80.57 673.75,-64.92 677.73,-51.85"/>
<polygon fill="black" stroke="black" points="681.16,-52.58 680.73,-41.99 674.47,-50.54 681.16,-52.58"/>
<text text-anchor="middle" x="680.75" y="-63.43" font-family="David" font-size="10.00" fill="red">no</text>
</g>
</g>
</svg>
